<svg role="img" xmlns="http://www.w3.org/2000/svg" viewBox="0 0 80 80"><title>PLC Programming</title><rect x="34.877" y="7.448" width="6.521" height="2.981"/><circle cx="40.753" cy="23.565" r="1.025"/><circle cx="40.753" cy="26.702" r="1.025"/><circle cx="40.753" cy="29.838" r="1.025"/><circle cx="40.753" cy="32.974" r="1.025"/><rect x="45.142" y="7.448" width="6.521" height="2.981"/><circle cx="51.018" cy="23.565" r="1.025"/><circle cx="51.018" cy="26.702" r="1.025"/><circle cx="51.018" cy="29.838" r="1.025"/><circle cx="51.018" cy="32.974" r="1.025"/><rect x="55.407" y="7.448" width="6.521" height="2.981"/><circle cx="61.284" cy="23.565" r="1.025"/><circle cx="61.284" cy="26.702" r="1.025"/><circle cx="61.284" cy="29.838" r="1.025"/><circle cx="61.284" cy="32.974" r="1.025"/><rect x="65.672" y="7.448" width="6.521" height="2.981"/><circle cx="71.548" cy="23.565" r="1.025"/><circle cx="71.548" cy="26.702" r="1.025"/><circle cx="71.548" cy="29.838" r="1.025"/><circle cx="71.548" cy="32.974" r="1.025"/><rect x="75.938" y="7.448" width="6.521" height="2.981"/><circle cx="81.813" cy="23.565" r="1.024"/><circle cx="81.813" cy="26.702" r="1.024"/><circle cx="81.813" cy="29.838" r="1.024"/><circle cx="81.813" cy="32.974" r="1.024"/><rect x="86.202" y="7.448" width="6.521" height="2.981"/><circle cx="92.079" cy="23.565" r="1.025"/><circle cx="92.079" cy="26.702" r="1.025"/><circle cx="92.079" cy="29.838" r="1.025"/><circle cx="92.079" cy="32.974" r="1.025"/><rect x="7.079" y="32.958" width="1.71" height="4.277"/><rect x="7.079" y="39.159" width="1.71" height="4.276"/><rect x="7.079" y="45.36" width="1.71" height="4.276"/><path d="M84.734,4.999h-0.809H74.47h-0.809h-9.457h-0.808h-9.457h-0.809h-9.457h-0.808H32.601l0,0H5v46.573h27.602h0.808h9.457  h0.808h9.457h0.809h9.457h0.808h9.457h0.809h9.456h0.809H95V4.999H84.734z M29.958,7.313c0.503,0,0.912,0.408,0.912,0.912  c0,0.503-0.409,0.912-0.912,0.912c-0.504,0-0.912-0.409-0.912-0.912C29.046,7.722,29.454,7.313,29.958,7.313z M32.601,50.764H5.808  V21.055h26.793V50.764z M42.866,50.763h-9.457V5.807h9.457V50.763z M53.131,50.763h-9.457V5.807h9.457V50.763z M63.396,50.763  h-9.457V5.807h9.457V50.763z M73.661,50.763h-9.457V5.807h9.457V50.763z M83.926,50.763H74.47V5.807h9.456V50.763z M94.191,50.763  h-9.457V5.807h9.457V50.763z"/></svg>